<svg width="55" height="16" viewBox="0 0 55 16" fill="none" xmlns="http://www.w3.org/2000/svg">
<path d="M9.4043 11.6895H3.89648L2.74414 15H0.175781L5.54688 0.78125H7.76367L13.1445 15H10.5664L9.4043 11.6895ZM4.58984 9.69727H8.71094L6.65039 3.79883L4.58984 9.69727ZM25.4004 10.3711C25.2572 11.888 24.6973 13.0729 23.7207 13.9258C22.7441 14.7721 21.4453 15.1953 19.8242 15.1953C18.6914 15.1953 17.6921 14.9284 16.8262 14.3945C15.9668 13.8542 15.3027 13.0892 14.834 12.0996C14.3652 11.11 14.1211 9.96094 14.1016 8.65234V7.32422C14.1016 5.98307 14.3392 4.80143 14.8145 3.7793C15.2897 2.75716 15.9701 1.9694 16.8555 1.41602C17.7474 0.86263 18.776 0.585938 19.9414 0.585938C21.5104 0.585938 22.7734 1.01237 23.7305 1.86523C24.6875 2.7181 25.2441 3.92253 25.4004 5.47852H22.9395C22.8223 4.45638 22.5228 3.7207 22.041 3.27148C21.5658 2.81576 20.8659 2.58789 19.9414 2.58789C18.8672 2.58789 18.0404 2.98177 17.4609 3.76953C16.888 4.55078 16.5951 5.69987 16.582 7.2168V8.47656C16.582 10.013 16.8555 11.1849 17.4023 11.9922C17.9557 12.7995 18.763 13.2031 19.8242 13.2031C20.7943 13.2031 21.5234 12.985 22.0117 12.5488C22.5 12.1126 22.8092 11.3867 22.9395 10.3711H25.4004ZM30.8203 0.78125L34.9219 11.6797L39.0137 0.78125H42.207V15H39.7461V10.3125L39.9902 4.04297L35.791 15H34.0234L29.834 4.05273L30.0781 10.3125V15H27.6172V0.78125H30.8203ZM53.4473 8.65234H47.6074V13.0273H54.4336V15H45.1367V0.78125H54.3652V2.77344H47.6074V6.69922H53.4473V8.65234Z" fill="#212529"/>
</svg>
